<?xml version="1.0" encoding="utf-8"?>
<!-- Generator: Adobe Illustrator 15.0.0, SVG Export Plug-In . SVG Version: 6.00 Build 0)  -->
<!DOCTYPE svg PUBLIC "-//W3C//DTD SVG 1.1//EN" "http://www.w3.org/Graphics/SVG/1.1/DTD/svg11.dtd">
<svg version="1.1" id="Layer_1" xmlns="http://www.w3.org/2000/svg" xmlns:xlink="http://www.w3.org/1999/xlink" x="0px" y="0px"
	 width="612px" height="614px" viewBox="0 86.5 612 614" enable-background="new 0 86.5 612 614" xml:space="preserve">
<g>
	<g>
		<circle fill="#FFFFFF" cx="360.559" cy="291.153" r="31.312"/>
		<path fill="#FFFFFF" d="M30.363,656.931C30.363,656.931,30.363,657.404,30.363,656.931c0,0.474,0,0.474,0.475,0.474
			c0.474,0.949,0.949,2.372,1.423,3.321c0,0.475,0.475,0.475,0.475,0.949c0,0.474,0.475,0.474,0.475,0.948l0.474,0.475
			c0.475,0.949,1.423,1.423,1.898,2.372l0.474,0.475c0.475,0.475,0.475,0.475,0.949,0.948c0.474,0,0.474,0.475,0.474,0.475
			c0.475,0.475,0.949,0.475,1.423,0.949l0.475,0.475c0,0,0.474,0,0.474,0.474c0.475,0.475,1.423,0.475,1.898,0.949
			c0.474,0,0.474,0,0.949,0.475c0.474,0,0.949,0.475,0.949,0.475c1.423,0.474,2.847,0.474,4.27,0.474h513.321
			c10.911,0,19.451-8.539,19.451-19.451V524.093V140.288c0-10.912-8.54-19.451-19.451-19.451H49.339
			c-10.912,0-19.451,8.54-19.451,19.451v382.855v128.094c0,1.423,0.475,3.32,0.475,4.744
			C30.363,656.456,30.363,656.93,30.363,656.931L30.363,656.931z M543.209,632.261H114.335l316.911-207.321l111.963,106.744V632.261
			z M68.791,159.74h474.418v318.334l-96.307-92.037c-6.642-6.167-16.604-7.116-24.195-2.372l-90.614,59.776l-63.098-63.572
			c-6.642-6.642-16.604-7.59-24.195-2.846L68.791,488.037V159.74L68.791,159.74z M68.791,534.056l183.6-115.758l46.493,46.968
			L68.791,615.656V534.056z"/>
	</g>
</g>
</svg>
