<?xml version="1.0" encoding="utf-8"?>
<!-- Generator: Adobe Illustrator 15.0.0, SVG Export Plug-In . SVG Version: 6.00 Build 0)  -->
<!DOCTYPE svg PUBLIC "-//W3C//DTD SVG 1.1//EN" "http://www.w3.org/Graphics/SVG/1.1/DTD/svg11.dtd">
<svg version="1.1" id="Layer_1" xmlns="http://www.w3.org/2000/svg" xmlns:xlink="http://www.w3.org/1999/xlink" x="0px" y="0px"
	 width="645px" height="527px" viewBox="-14.5 -23.5 645 527" enable-background="new -14.5 -23.5 645 527" xml:space="preserve">
<g>
	<path fill="#008CBA" d="M471.146,313.838l-371.606-1.21c-25.586-0.083-47.123-18.465-51.208-43.732L5.041,60.361
		C2.442,44.41,6.754,29.053,16.696,17.415C26.637,5.776,41.126-0.869,56.435-0.819l503.54,1.64
		c16.512,0.054,31.651,7.668,41.531,20.889c9.873,13.23,12.896,29.899,8.26,45.744c-0.209,0.717-0.46,1.411-0.745,2.077
		l-88.11,208.054C514.064,299.065,493.783,313.912,471.146,313.838z M56.31,37.239c-5.633-0.019-9.114,3.065-10.679,4.9
		c-1.564,1.836-4.062,5.755-3.166,11.318L85.758,261.98c1.243,7.613,7.036,12.558,13.917,12.58l371.607,1.21
		c6.194,0.021,11.724-4.108,13.47-10.047c0.2-0.716,0.45-1.412,0.733-2.077L573.45,55.934c0.908-3.997,0.036-8.116-2.437-11.438
		c-2.659-3.542-6.727-5.593-11.163-5.608L56.31,37.248V37.239z"/>
	<path fill="#008CBA" d="M301.313,401.05h-47.12c-10.507,0-19.029-8.522-19.029-19.028c0-10.507,8.522-19.03,19.029-19.03h47.12
		c10.507,0,19.028,8.522,19.028,19.03C320.341,392.528,311.829,401.05,301.313,401.05z"/>
	<path fill="#008CBA" d="M135.457,472.729c-37.798,0-68.55-30.74-68.55-68.549c0-37.809,30.752-68.549,68.55-68.549
		c37.798,0,68.55,30.74,68.55,68.549C204.007,441.988,173.244,472.729,135.457,472.729z M135.457,373.676
		c-16.815,0-30.492,13.677-30.492,30.492c0,16.815,13.677,30.491,30.492,30.491c16.805,0,30.481-13.676,30.481-30.491
		C165.938,387.354,152.262,373.676,135.457,373.676z"/>
	<path fill="#008CBA" d="M424.83,472.729c-37.8,0-68.552-30.74-68.552-68.549c0-37.809,30.752-68.549,68.552-68.549
		c37.797,0,68.548,30.74,68.548,68.549C493.378,441.988,462.616,472.729,424.83,472.729z M424.83,373.676
		c-16.816,0-30.493,13.677-30.493,30.492c0,16.815,13.677,30.491,30.493,30.491c16.803,0,30.48-13.676,30.48-30.491
		C455.311,387.354,441.633,373.676,424.83,373.676z"/>
</g>
<path fill="#008CBA" d="M391.859,261.869c-7.029,7.029-18.427,7.03-25.456,0L181.141,76.606c-7.029-7.029-7.029-18.426,0-25.456l0,0
	c7.029-7.029,18.427-7.029,25.456,0l185.262,185.262C398.889,243.442,398.889,254.839,391.859,261.869L391.859,261.869z"/>
<path fill="#008CBA" d="M172.394,261.869c-7.029-7.029-7.029-18.427,0-25.456L357.656,51.151c7.028-7.029,18.426-7.029,25.455,0l0,0
	c7.029,7.028,7.029,18.427,0,25.456L197.85,261.869C190.82,268.898,179.423,268.898,172.394,261.869L172.394,261.869z"/>
</svg>
