<?xml version="1.0" encoding="utf-8"?>
<!-- Generator: Adobe Illustrator 15.0.0, SVG Export Plug-In . SVG Version: 6.00 Build 0)  -->
<!DOCTYPE svg PUBLIC "-//W3C//DTD SVG 1.1//EN" "http://www.w3.org/Graphics/SVG/1.1/DTD/svg11.dtd">
<svg version="1.1" id="Layer_1" xmlns="http://www.w3.org/2000/svg" xmlns:xlink="http://www.w3.org/1999/xlink" x="0px" y="0px"
	 width="645px" height="527px" viewBox="-14.5 -23.5 645 527" enable-background="new -14.5 -23.5 645 527" xml:space="preserve">
<g>
	<path fill="#FFFFFF" d="M471.657,313.305H100.05c-25.586,0-47.183-18.311-51.35-43.565L4.729,61.348
		C2.079,45.405,6.34,30.034,16.244,18.364C26.147,6.692,40.614,0,55.923,0h503.543c16.512,0,31.676,7.565,41.599,20.754
		c9.916,13.198,12.993,29.857,8.409,45.717c-0.207,0.718-0.455,1.413-0.738,2.079l-87.433,208.34
		C514.527,298.392,494.294,313.305,471.657,313.305z M55.922,38.058c-5.633,0-9.104,3.095-10.663,4.936
		c-1.559,1.841-4.043,5.768-3.128,11.328l43.971,208.381c1.268,7.608,7.077,12.534,13.958,12.534h371.609
		c6.194,0,11.711-4.146,13.438-10.091c0.197-0.717,0.445-1.414,0.727-2.079l87.288-207.998c0.895-4,0.01-8.116-2.475-11.431
		c-2.67-3.533-6.744-5.571-11.181-5.571H55.922V38.058z"/>
	<path fill="#FFFFFF" d="M301.313,401.05h-47.12c-10.507,0-19.029-8.522-19.029-19.028c0-10.507,8.522-19.03,19.029-19.03h47.12
		c10.507,0,19.028,8.522,19.028,19.03C320.341,392.528,311.829,401.05,301.313,401.05z"/>
	<path fill="#FFFFFF" d="M135.457,472.729c-37.798,0-68.55-30.74-68.55-68.549c0-37.809,30.752-68.549,68.55-68.549
		c37.798,0,68.55,30.74,68.55,68.549C204.007,441.988,173.244,472.729,135.457,472.729z M135.457,373.676
		c-16.815,0-30.492,13.677-30.492,30.492c0,16.815,13.677,30.491,30.492,30.491c16.805,0,30.481-13.676,30.481-30.491
		C165.938,387.354,152.262,373.676,135.457,373.676z"/>
	<path fill="#FFFFFF" d="M424.83,472.729c-37.8,0-68.552-30.74-68.552-68.549c0-37.809,30.752-68.549,68.552-68.549
		c37.797,0,68.548,30.74,68.548,68.549C493.378,441.988,462.616,472.729,424.83,472.729z M424.83,373.676
		c-16.816,0-30.493,13.677-30.493,30.492c0,16.815,13.677,30.491,30.493,30.491c16.803,0,30.48-13.676,30.48-30.491
		C455.311,387.354,441.633,373.676,424.83,373.676z"/>
</g>
</svg>
