<?xml version="1.0" encoding="utf-8"?>
<!-- Generator: Adobe Illustrator 15.0.0, SVG Export Plug-In . SVG Version: 6.00 Build 0)  -->
<!DOCTYPE svg PUBLIC "-//W3C//DTD SVG 1.1//EN" "http://www.w3.org/Graphics/SVG/1.1/DTD/svg11.dtd">
<svg version="1.1" id="Capa_1" xmlns="http://www.w3.org/2000/svg" xmlns:xlink="http://www.w3.org/1999/xlink" x="0px" y="0px"
	 width="806.5px" height="792px" viewBox="0 0 806.5 792" enable-background="new 0 0 806.5 792" xml:space="preserve">
<g>
	<g id="Double_Arrow_Up_x2F_Down">
		<path fill="#666666" d="M627.094,227.516L493.254,95.551c-7.44-7.364-19.892-7.44-27.33,0L332.066,227.516
			c-7.555,7.479-7.535,19.584,0,27.043c7.535,7.478,19.775,7.478,27.311,0l100.886-99.452v298.221
			c0,10.558,8.646,19.125,19.317,19.125s19.317-8.568,19.317-19.125V155.107l100.886,99.452c7.555,7.478,19.775,7.478,27.311,0
			C634.646,247.081,634.646,234.975,627.094,227.516z"/>
		<path fill="#666666" d="M447.124,537.46l-100.887,99.452V338.691c0-10.558-8.646-19.125-19.317-19.125
			s-19.316,8.569-19.316,19.125v298.221L206.717,537.46c-7.554-7.479-19.775-7.479-27.31,0c-7.555,7.479-7.555,19.584,0,27.043
			l133.857,131.945c7.44,7.364,19.892,7.44,27.33,0l133.857-131.964c7.555-7.479,7.536-19.584,0-27.044
			C466.9,530.001,454.659,529.981,447.124,537.46z"/>
	</g>
</g>
</svg>
